<?xml version="1.0" encoding="utf-8"?>
<!-- Generator: Adobe Illustrator 18.0.0, SVG Export Plug-In . SVG Version: 6.00 Build 0)  -->
<!DOCTYPE svg PUBLIC "-//W3C//DTD SVG 1.1//EN" "http://www.w3.org/Graphics/SVG/1.1/DTD/svg11.dtd">
<svg version="1.1" id="Layer_1" xmlns="http://www.w3.org/2000/svg" xmlns:xlink="http://www.w3.org/1999/xlink" x="0px" y="0px"
	 viewBox="0 90 612 612" enable-background="new 0 90 612 612" xml:space="preserve">
<g>
	<circle stroke="#FFFFFF" stroke-miterlimit="10" cx="306" cy="396" r="296.2"/>
	<path fill="#FFFFFF" d="M306,265.1"/>
	<path fill="#FFFFFF" stroke="#000000" stroke-width="6" stroke-miterlimit="10" d="M549.1,316.5c-1.7-23.8-76.9-59.5-122.4-82.9
		c-33.6-17-53.5,8.1-61.6,22.5c-17.9-6.4-37.8-10.2-58.7-10.2s-40.8,3.8-59.1,10.2c-8.1-14.4-28.1-39.5-61.6-22.5
		c-45.5,23-120.7,59.1-122.4,82.9c-1.7,23.8,23.8,101.1,23.8,112.2s-31,47.2,0,45.9c25.9-1.3,72.7-12.3,90.5-41.2
		c4.2,15.7,8.1,32.3,8.1,47.2c0,46.3,21.7,83.7,48.4,83.7c11.5,0,27.2-8.5,42.1-21.7c8.9,3.8,19.1,5.9,29.8,5.9s20.8-2.1,29.8-5.9
		c14.5,13.2,30.6,21.7,42.1,21.7c26.8,0,48.5-37.4,48.5-83.7c0-14.5,3.8-31,8.1-46.3c18.3,28.5,64.6,39.1,90.1,40.8
		c31,1.7,0-34.4,0-45.9C524.5,417.7,550.8,339.9,549.1,316.5z"/>
	<g>
		<path fill="none" stroke="#000000" stroke-width="7" stroke-linecap="round" stroke-miterlimit="10" d="M342.1,542.6
			c0,0-15.7-26.3-28-36.1c-4.7-3.4-8.5-34.8-8.5-34.8"/>
		<path fill="none" stroke="#000000" stroke-width="7" stroke-linecap="round" stroke-miterlimit="10" d="M269.9,542.6
			c0,0,15.7-26.3,28-36.1c4.7-3.4,8.5-34.8,8.5-34.8"/>
	</g>
	<g>
		<path fill="none" stroke="#000000" stroke-width="7" stroke-linecap="round" stroke-miterlimit="10" d="M433.5,431.7
			c0,0-12.8-23.8-11.9-39.1c0.9-15.7-4.2-87.1-16.6-117.7c-12.3-30.6-25.9-12.8-25.9-12.8"/>
		<path fill="none" stroke="#000000" stroke-width="7" stroke-linecap="round" stroke-miterlimit="10" d="M178.5,431.7
			c0,0,12.8-23.8,11.9-39.1c-0.9-15.3,4.2-87.1,16.6-117.7c12.3-30.6,25.9-12.8,25.9-12.8"/>
	</g>
	<ellipse cx="306" cy="442.8" rx="53.1" ry="25.5"/>
	<g>
		<ellipse stroke="#000000" stroke-width="5" stroke-miterlimit="10" cx="375.3" cy="385" rx="8.9" ry="14.5"/>
		<ellipse stroke="#000000" stroke-width="5" stroke-miterlimit="10" cx="236.7" cy="385" rx="8.9" ry="14.5"/>
	</g>
</g>
</svg>
