<?xml version="1.0" encoding="UTF-8" standalone="no"?>
<svg width="44px" height="44px" viewBox="0 0 44 44" version="1.1" xmlns="http://www.w3.org/2000/svg" xmlns:xlink="http://www.w3.org/1999/xlink" xmlns:sketch="http://www.bohemiancoding.com/sketch/ns">
    <!-- Generator: Sketch 3.0.3 (7891) - http://www.bohemiancoding.com/sketch -->
    <title>facebook</title>
    <desc>Created with Sketch.</desc>
    <defs></defs>
    <g id="Page-1" stroke="none" stroke-width="1" fill="none" fill-rule="evenodd" sketch:type="MSPage">
        <g id="layout" sketch:type="MSArtboardGroup" transform="translate(-413.000000, -1383.000000)" fill="#FAFAFA">
            <path d="M454.57162,1383 L415.42838,1383 C414.086918,1383 413,1384.08692 413,1385.42838 L413,1424.57162 C413,1425.91275 414.086918,1427 415.42838,1427 L436.501705,1427 L436.501705,1409.96095 L430.767728,1409.96095 L430.767728,1403.32041 L436.501705,1403.32041 L436.501705,1398.42326 C436.501705,1392.74006 439.972821,1389.64548 445.042579,1389.64548 C447.470959,1389.64548 449.558244,1389.82634 450.166411,1389.90712 L450.166411,1395.84634 L446.650288,1395.84799 C443.893014,1395.84799 443.359199,1397.15813 443.359199,1399.08072 L443.359199,1403.32041 L449.934948,1403.32041 L449.078668,1409.96095 L443.359199,1409.96095 L443.359199,1427 L454.57162,1427 C455.912752,1427 457,1425.91275 457,1424.57162 L457,1385.42838 C457,1384.08692 455.912752,1383 454.57162,1383" id="facebook" sketch:type="MSShapeGroup"></path>
        </g>
    </g>
</svg>