<?xml version="1.0" encoding="UTF-8" standalone="no"?>
<svg width="44px" height="44px" viewBox="0 0 44 44" version="1.1" xmlns="http://www.w3.org/2000/svg" xmlns:xlink="http://www.w3.org/1999/xlink" xmlns:sketch="http://www.bohemiancoding.com/sketch/ns">
    <!-- Generator: Sketch 3.0.3 (7891) - http://www.bohemiancoding.com/sketch -->
    <title>instagram</title>
    <desc>Created with Sketch.</desc>
    <defs></defs>
    <g id="Page-1" stroke="none" stroke-width="1" fill="none" fill-rule="evenodd" sketch:type="MSPage">
        <g id="layout" sketch:type="MSArtboardGroup" transform="translate(-646.000000, -1383.000000)" fill="#FAFAFA">
            <path d="M684.924138,1427 L651.075862,1427 C648.272826,1427 646,1424.72638 646,1421.92137 L646,1388.07591 C646,1385.27246 648.272826,1383 651.075862,1383 L684.924138,1383 C687.727563,1383 690,1385.27246 690,1388.07591 L690,1421.92137 C690,1424.72638 687.727563,1427 684.924138,1427 L684.924138,1427 Z M667.999806,1396.53795 C663.326266,1396.53795 659.538222,1400.32564 659.538222,1404.99922 C659.538222,1409.67203 663.326266,1413.46166 667.999806,1413.46166 C672.673346,1413.46166 676.462166,1409.67203 676.462166,1404.99922 C676.462166,1400.32564 672.673346,1396.53795 667.999806,1396.53795 L667.999806,1396.53795 Z M684.924138,1389.768 C684.924138,1388.83391 684.166141,1388.07591 683.230111,1388.07591 L678.15425,1388.07591 C677.219386,1388.07591 676.462166,1388.83391 676.462166,1389.768 L676.462166,1394.84585 C676.462166,1395.77995 677.219386,1396.53795 678.15425,1396.53795 L683.230111,1396.53795 C684.166141,1396.53795 684.924138,1395.77995 684.924138,1394.84585 C684.924138,1394.84585 684.924138,1395.77995 684.924138,1394.84585 L684.924138,1389.768 L684.924138,1389.768 Z M684.924138,1401.61347 L681.093725,1401.61347 C681.372823,1402.69683 681.537639,1403.82879 681.537639,1404.99922 C681.537639,1412.47742 675.47677,1418.53795 667.999806,1418.53795 C660.52323,1418.53795 654.461972,1412.47742 654.461972,1404.99922 C654.461972,1403.82879 654.627565,1402.69683 654.906664,1401.61347 L651.075862,1401.61347 L651.075862,1420.23044 C651.075862,1421.16376 651.833859,1421.92137 652.769889,1421.92137 L683.230111,1421.92137 C684.166141,1421.92137 684.924138,1421.16376 684.924138,1420.23044 C684.924138,1420.23044 684.924138,1421.16376 684.924138,1420.23044 L684.924138,1401.61347 L684.924138,1401.61347 Z" id="instagram" sketch:type="MSShapeGroup"></path>
        </g>
    </g>
</svg>