<?xml version="1.0" encoding="UTF-8" standalone="no"?>
<svg width="44px" height="44px" viewBox="0 0 44 44" version="1.1" xmlns="http://www.w3.org/2000/svg" xmlns:xlink="http://www.w3.org/1999/xlink" xmlns:sketch="http://www.bohemiancoding.com/sketch/ns">
    <!-- Generator: Sketch 3.0.3 (7891) - http://www.bohemiancoding.com/sketch -->
    <title>linkedin</title>
    <desc>Created with Sketch.</desc>
    <defs></defs>
    <g id="Page-1" stroke="none" stroke-width="1" fill="none" fill-rule="evenodd" sketch:type="MSPage">
        <g id="layout" sketch:type="MSArtboardGroup" transform="translate(-981.000000, -1381.000000)" fill="#FAFAFA">
            <path d="M1021.74068,1381 L984.245753,1381 C982.455616,1381 981,1382.42005 981,1384.17011 L981,1421.82507 C981,1423.57723 982.455616,1425 984.245753,1425 L1021.74068,1425 C1023.53414,1425 1025,1423.57723 1025,1421.82507 L1025,1384.17011 C1025,1382.42005 1023.53414,1381 1021.74068,1381 Z M990.779753,1387.05784 C992.868849,1387.05784 994.564658,1388.75334 994.564658,1390.84003 C994.564658,1392.92912 992.868849,1394.62493 990.779753,1394.62493 C988.682219,1394.62493 986.990932,1392.92912 986.990932,1390.84003 C986.990932,1388.75334 988.682219,1387.05784 990.779753,1387.05784 Z M987.509589,1397.49578 L994.046,1397.49578 L994.046,1418.49252 L987.509589,1418.49252 L987.509589,1397.49578 Z M998.143425,1397.49578 L1004.40318,1397.49578 L1004.40318,1400.36452 L1004.49238,1400.36452 C1005.36334,1398.71332 1007.49523,1396.9729 1010.67197,1396.9729 C1017.27951,1396.9729 1018.50156,1401.32077 1018.50156,1406.97537 L1018.50156,1418.49252 L1011.9766,1418.49252 L1011.9766,1408.28271 C1011.9766,1405.84734 1011.92959,1402.71521 1008.58288,1402.71521 C1005.18433,1402.71521 1004.66597,1405.36696 1004.66597,1408.10581 L1004.66597,1418.49252 L998.143425,1418.49252 L998.143425,1397.49578 Z" id="linkedin" sketch:type="MSShapeGroup"></path>
        </g>
    </g>
</svg>