<?xml version="1.0" encoding="UTF-8" standalone="no"?>
<svg width="55px" height="44px" viewBox="0 0 55 44" version="1.1" xmlns="http://www.w3.org/2000/svg" xmlns:xlink="http://www.w3.org/1999/xlink" xmlns:sketch="http://www.bohemiancoding.com/sketch/ns">
    <!-- Generator: Sketch 3.0.3 (7891) - http://www.bohemiancoding.com/sketch -->
    <title>twitter</title>
    <desc>Created with Sketch.</desc>
    <defs></defs>
    <g id="Page-1" stroke="none" stroke-width="1" fill="none" fill-rule="evenodd" sketch:type="MSPage">
        <g id="layout" sketch:type="MSArtboardGroup" transform="translate(-524.000000, -1383.000000)" fill="#FAFAFA">
            <path d="M579,1388.20845 C576.97655,1389.09204 574.801575,1389.68923 572.51935,1389.9575 C574.8486,1388.58284 576.638025,1386.40606 577.480625,1383.81213 C575.30015,1385.08527 572.885375,1386.00947 570.31495,1386.50758 C568.25685,1384.34867 565.32425,1383 562.0787,1383 C555.8472,1383 550.794625,1387.9732 550.794625,1394.10747 C550.794625,1394.97807 550.89445,1395.82593 551.08695,1396.63887 C541.7089,1396.17569 533.394275,1391.75338 527.8291,1385.03303 C526.8578,1386.67352 526.3012,1388.58175 526.3012,1390.61749 C526.3012,1394.4713 528.2933,1397.87114 531.32105,1399.86302 C529.4714,1399.80536 527.731475,1399.30563 526.210175,1398.47374 C526.209075,1398.52003 526.209075,1398.56632 526.209075,1398.61343 C526.209075,1403.99513 530.098675,1408.48457 535.2607,1409.50514 C534.313875,1409.75907 533.317,1409.89496 532.28795,1409.89496 C531.56085,1409.89496 530.853825,1409.82512 530.16495,1409.69545 C531.600725,1414.10828 535.7678,1417.31998 540.7057,1417.40931 C536.843875,1420.38874 531.978575,1422.16459 526.6917,1422.16459 C525.7809,1422.16459 524.88275,1422.1118 524,1422.0092 C528.993725,1425.1608 534.924925,1427 541.297225,1427 C562.0523,1427 573.402375,1410.07417 573.402375,1395.39551 C573.402375,1394.91391 573.3911,1394.43503 573.369375,1393.95858 C575.574325,1392.39226 577.487225,1390.43611 579,1388.20845" id="twitter" sketch:type="MSShapeGroup"></path>
        </g>
    </g>
</svg>